<svg width="100%" height="100%" viewBox="0 0 106 130" version="1.1" xmlns="http://www.w3.org/2000/svg"
  xmlns:xlink="http://www.w3.org/1999/xlink" xml:space="preserve" xmlns:serif="http://www.serif.com/"
  style="fill-rule: evenodd; clip-rule: evenodd; stroke-linejoin: round; stroke-miterlimit: 2">
  <g>
    <path id="Curves"
      d="M34.304,41.926c-2.093,0.901 -4.394,1.344 -6.703,1.362c-4.571,0.012 -9.141,0 -13.711,0c-0.951,0 -1.801,0.836 -1.81,1.788c-0.017,5.201 0,10.402 0,15.603c0,0.957 0.839,1.8 1.788,1.809c4.629,0.015 9.258,0.025 13.887,0.029c-0.008,4.001 -0.014,8.001 -0.018,12c-4.649,-0.004 -9.297,-0.014 -13.946,-0.029c-5.651,-0.054 -11.074,-3.848 -12.956,-9.294c-0.49,-1.416 -0.74,-2.909 -0.755,-4.417c-0.017,-5.259 -0.017,-10.518 0,-15.777c0.054,-5.672 3.853,-11.077 9.295,-12.957c0.947,-0.327 1.931,-0.551 2.927,-0.665c0.495,-0.056 0.992,-0.085 1.49,-0.089c4.595,-0.015 9.19,0.034 13.785,-0.001c0.285,-0.004 0.569,-0.022 0.852,-0.063c0.097,-0.014 0.195,-0.031 0.292,-0.051c1.117,-0.228 2.115,-1.075 2.403,-2.223c0.107,-0.426 0.15,-0.866 0.156,-1.305c0.036,-4.615 -0.014,-9.231 0,-13.846c0.053,-5.615 3.823,-11.029 9.214,-12.929c1.442,-0.508 2.966,-0.768 4.497,-0.782c5.259,-0.017 10.519,-0.017 15.778,0c5.639,0.054 11.023,3.808 12.928,9.214c0.509,1.444 0.768,2.978 0.783,4.497c0.018,5.819 0.02,11.638 0.017,17.458l0.021,0c0.004,3.999 0.003,7.998 -0.005,12l-0.027,0c-0.003,3.213 -0.006,6.427 -0.006,9.64c-0.011,3.4 -0.85,6.767 -2.367,9.779c0.736,-0.122 1.485,-0.183 2.235,-0.188c5.841,-0.014 11.682,0 17.522,-0.001c0.953,0 1.801,-0.835 1.81,-1.788c0.017,-5.2 0,-10.401 0,-15.602c0,-0.942 -0.836,-1.8 -1.788,-1.809c-4.635,-0.015 -9.271,-0.025 -13.906,-0.029c0.004,-4.001 0.008,-8.002 0.01,-12c4.657,0.004 9.315,0.014 13.972,0.029c5.601,0.053 11.03,3.827 12.929,9.214c0.509,1.444 0.768,2.978 0.783,4.497c0.017,5.259 0.017,10.518 0,15.777c-0.067,6.967 -5.977,13.424 -13.27,13.701c-0.173,0.007 -0.347,0.01 -0.52,0.01l-14.272,0c-1.971,0.001 -3.14,1.241 -3.143,2.92c-0.045,27.348 0.041,26.93 0.005,38.329c-0.067,6.948 -5.89,13.374 -13.183,13.698c-0.176,0.008 -0.352,0.012 -0.528,0.013c-5.259,0.017 -10.519,0.017 -15.778,0c-5.618,-0.054 -11.076,-3.853 -12.956,-9.294c-0.491,-1.42 -0.741,-2.922 -0.755,-4.417c-0.067,-20.953 -0.065,-41.905 0,-62.858c0,-1.224 -0.005,-1.226 0.115,-2.444l0.063,-0.379c0.374,-2.876 1.365,-5.645 2.846,-8.13Zm28.399,30.22c-2.995,1.503 -6.341,2.311 -9.688,2.342c-2.094,0.007 -4.189,0.013 -6.283,0.017c0.003,-3.999 0.009,-7.999 0.019,-12c2.063,-0.004 4.126,-0.01 6.189,-0.017c4.833,-0.045 9.272,-3.996 9.526,-9.058c0.008,-0.158 0.012,-0.315 0.014,-0.473c0.041,-13.02 0,-26.039 0,-39.059c0,-0.951 -0.835,-1.8 -1.788,-1.809c-5.201,-0.017 -10.402,-0.001 -15.602,-0.001c-0.953,0.004 -1.795,0.833 -1.81,1.776c-0.043,4.602 0.012,9.205 0,13.807c-0.018,2.278 -0.488,4.548 -1.385,6.616c1.252,-0.75 2.586,-1.373 3.985,-1.847c2.208,-0.748 4.535,-1.129 6.865,-1.151c2.093,-0.007 4.187,-0.013 6.28,-0.017c0.015,3.999 0.025,8.003 0.017,12c-2.074,0.004 -4.148,0.01 -6.222,0.017c-4.993,0.047 -9.54,4.205 -9.54,9.609c0,3.205 -0.002,6.409 -0.004,9.614l0,0l0,0.193l-0.001,0.685c-0.002,3.167 -0.006,6.334 -0.009,9.5l-0.002,1.622l0,0c-0.014,13.716 -0.028,27.433 0.016,41.149c0.009,0.938 0.843,1.778 1.788,1.787c5.201,0.017 10.402,0.001 15.602,0c0.944,0 1.801,-0.834 1.81,-1.788c0.044,-13.709 -0.03,-27.418 0,-41.127c0.005,-0.8 0.08,-1.601 0.223,-2.387Z"
      style="fill: var(--sl-color-white)" />
  </g>
</svg>